<?xml version="1.0" standalone="no"?>
<!DOCTYPE svg PUBLIC "-//W3C//DTD SVG 20010904//EN"
 "http://www.w3.org/TR/2001/REC-SVG-20010904/DTD/svg10.dtd">
<svg version="1.0" xmlns="http://www.w3.org/2000/svg"
 width="167.000000pt" height="108.000000pt" viewBox="0 0 167.000000 108.000000"
 preserveAspectRatio="xMidYMid meet">

<g transform="translate(0.000000,108.000000) scale(0.100000,-0.100000)"
fill="#000000" stroke="none">
<path d="M282 881 c-76 -26 -140 -85 -182 -166 -31 -60 -35 -76 -34 -144 1
-131 67 -239 181 -297 52 -26 68 -29 148 -29 106 1 144 17 263 110 l72 56 61
-55 c56 -50 138 -94 229 -121 l24 -8 -25 34 c-14 19 -103 145 -198 281 -95
137 -191 264 -214 283 -84 72 -214 94 -325 56z m160 -131 c53 -15 92 -52 154
-144 l53 -80 -85 -63 c-101 -74 -148 -90 -212 -72 -114 32 -171 150 -123 254
23 50 58 83 108 100 47 17 58 18 105 5z"/>
<path d="M1189 737 c-66 -34 -181 -127 -175 -143 15 -39 124 -179 155 -199
150 -99 342 41 297 216 -32 121 -167 183 -277 126z m156 -6 c125 -58 155 -203
62 -299 -60 -62 -169 -73 -236 -24 -30 21 -141 171 -141 189 0 17 142 122 187
139 52 18 81 17 128 -5z"/>
</g>
</svg>
