<?xml version="1.0" standalone="no"?>
<!DOCTYPE svg PUBLIC "-//W3C//DTD SVG 20010904//EN"
 "http://www.w3.org/TR/2001/REC-SVG-20010904/DTD/svg10.dtd">
<svg version="1.0" xmlns="http://www.w3.org/2000/svg"
 width="410.000000pt" height="201.000000pt" viewBox="0 0 410.000000 201.000000"
 preserveAspectRatio="xMidYMid meet">

<g transform="translate(0.000000,201.000000) scale(0.100000,-0.100000)"
fill="#000000" stroke="none">
<path d="M1000 1680 c-270 -39 -507 -262 -556 -524 -30 -156 -10 -339 50 -453
73 -137 122 -194 230 -268 127 -87 226 -117 382 -117 127 0 170 10 294 71 36
17 142 85 235 151 94 66 178 120 189 120 15 0 88 -56 181 -139 75 -67 242
-162 350 -199 118 -40 136 -38 93 10 -93 101 -156 178 -224 272 -113 154 -117
160 -139 192 -31 46 -131 185 -167 233 -18 24 -37 52 -43 62 -35 61 -236 330
-288 385 -88 94 -185 158 -285 187 -64 19 -227 29 -302 17z m236 -301 c31 -12
73 -32 93 -46 42 -28 115 -111 162 -183 18 -27 36 -50 41 -50 4 0 8 -6 8 -14
0 -7 6 -19 14 -25 15 -13 96 -142 96 -154 0 -6 -106 -87 -257 -193 -108 -78
-201 -114 -292 -114 -73 0 -183 39 -245 86 -112 85 -166 224 -147 376 19 148
102 250 261 321 54 24 195 22 266 -4z"/>
</g>
</svg>
