<svg width="15" height="18" viewBox="0 0 15 18" fill="none" xmlns="http://www.w3.org/2000/svg">
<path fill-rule="evenodd" clip-rule="evenodd" d="M2.58551 12.2274L5.06634 12.0016L9.73301 7.33077L7.48634 5.08327L2.80551 9.7641L2.58551 12.2274ZM8.60301 3.96743L10.8488 6.21327L12.4713 4.58827L10.2263 2.34327L8.60301 3.96743ZM1.07719 13.7374C0.902192 13.5624 0.814692 13.3191 0.836358 13.0724L1.15219 9.59743C1.18719 9.2166 1.35553 8.85743 1.62719 8.58577L9.12386 1.0891C9.70886 0.501601 10.7697 0.530767 11.3872 1.1466L13.6689 3.42827L13.6697 3.4291C14.3072 4.06743 14.333 5.08243 13.7264 5.69077L6.22886 13.1883C5.95803 13.4591 5.59886 13.6274 5.21719 13.6624L1.74219 13.9783C1.71719 13.9799 1.69219 13.9808 1.66636 13.9808C1.44719 13.9808 1.23469 13.8941 1.07719 13.7374ZM14.1663 16.4808C14.1663 16.9391 13.7913 17.3141 13.333 17.3141H1.66634C1.20884 17.3141 0.833008 16.9391 0.833008 16.4808C0.833008 16.0233 1.20884 15.6474 1.66634 15.6474H13.333C13.7913 15.6474 14.1663 16.0233 14.1663 16.4808Z" fill="#039443"/>
</svg>
