<svg width="14" height="15" viewBox="0 0 14 15" fill="none" xmlns="http://www.w3.org/2000/svg">
<path d="M7.00016 2.16671C9.94083 2.16671 12.3335 4.55937 12.3335 7.50004C12.3335 10.4407 9.94083 12.8334 7.00016 12.8334C4.0595 12.8334 1.66683 10.4407 1.66683 7.50004C1.66683 4.55937 4.0595 2.16671 7.00016 2.16671ZM7.00016 0.833374C3.31816 0.833374 0.333496 3.81804 0.333496 7.50004C0.333496 11.182 3.31816 14.1667 7.00016 14.1667C10.6822 14.1667 13.6668 11.182 13.6668 7.50004C13.6668 3.81804 10.6822 0.833374 7.00016 0.833374ZM10.3335 6.83337H7.66683V4.16671H6.3335V6.83337H3.66683V8.16671H6.3335V10.8334H7.66683V8.16671H10.3335V6.83337Z" fill="#858992"/>
</svg>
