<?xml version="1.0" encoding="utf-8"?>
<!-- Generator: Adobe Illustrator 25.4.1, SVG Export Plug-In . SVG Version: 6.00 Build 0)  -->
<svg version="1.1" id="ركن" xmlns="http://www.w3.org/2000/svg" xmlns:xlink="http://www.w3.org/1999/xlink" x="0px" y="0px"
	 viewBox="0 0 633.7 422.5" style="enable-background:new 0 0 633.7 422.5;" xml:space="preserve">
<style type="text/css">
	.st0{fill-rule:evenodd;clip-rule:evenodd;fill:#8D348B;}
</style>
<path class="st0" d="M200.4,130.8c-3.6,4.3-5.5,9.5-3.2,15l0.1,0.3l0,0v0c-1.8,0.8-5,4.2-7.1-0.4c-2.2-4.8-1.6-9.6,0.5-13.9
	c2.6-5.3,7.5-9.8,12.2-12.7c4.6-2.9,9.7-4.9,15-6.4c5.2-1.5,10.6-2.4,15.9-3c11.1-1.3,11.4-0.5,22.6,0.3c4.4,0.3,8.7,0.6,13.1,0.8
	c5.2-6.8,11.8-12.8,19.3-17.2c9.3-5.5,20-8.7,30.8-8l0,0l0,0h0.1c3.4,0.2,12.2,0.7,13.8,5.7c2,6.3-8.6,12.7-12.7,15.3l-0.3,0.2
	c-13.7,8.4-29.2,9.3-44.8,8.6c-1.8,2.5-3.4,5.1-4.9,7.8c-4.4,8.4-7.3,18.6-7.9,28.9c-0.5,9.2,0.8,18.5,4.7,26.3
	c1.2,2.5,2.9,5.2,4.8,7.5c1.6,1.9,3.4,3.6,5.4,4.8c2.2,1.3,5,2.3,7.9,2.7c2.7,0.4,5.5,0.4,7.9-0.2c1-0.3,2-0.6,3-1l0,0
	c1.1-0.4,2.1-0.9,3.1-1.4c8.3-4.2,14.4-11.6,20.3-18.9c1.1-1.4,2.3-2.8,3.3-4c2.8-3.4,5.9-7,9.5-10.2c3-2.6,6.2-4.9,9.9-6.4
	c2.7-2.3,5.9-3.8,9.3-4.5c4.7-1,9.8-0.6,14.5,0.9c1.9,0.6,4.6,2.3,6,4c0.6,0.7,1,1.4,1.1,2.2c0.2,1-0.1,1.8-0.9,2.6
	c-0.7,0.7-2,1.1-4,1.3c-3.1,0.2-5.8-0.7-8.4-1.6c-2.9-1-5.9-2-9.1-1.3c-0.8,0.2-1.6,0.4-2.3,0.7c-1.9,1.7-3.5,3.8-4.9,6.2
	c-1.7,3-3,6.3-3.7,9.7c-0.7,3.4-0.9,6.8-0.4,10c0.9,6.3,4.4,11.6,11.2,13.2c7.8,1.8,18.1-1.3,27-4c2.8-0.9-2.3,0.4,0.1-0.2
	c2-0.5,3.8-1,5.7-1.5l24-4.6l8,0.2c5.6,0.6,11.3,2.3,16.3,5c5.5,3.1,10.1,7.6,12.5,13.7l0.3,0.7l-0.4,0.6c-0.2,0.3-0.9,0.7-1.6,0.6
	c-0.1,0-0.4,0-0.6-0.1c-1.5-0.2-4.3-0.8-4.8-2.3c-7.8-19.4-31.7-13.3-48-9.2l-1,0.3c-2.9,0.7-5.9,1.6-9,2.4c-10.7,3-14,4.1-24.9,3.1
	c-4.2-0.4-8.3-1.5-11.7-3.6c-3.1-1.9-5.7-4.5-7.6-8.1l0,0c-2.7-5.3-3.4-11.5-2.4-17.4c0.1-0.8,0.3-1.7,0.5-2.5
	c-2.1,2.4-4.2,5-6.3,7.5c-4.9,6.1-9.9,12.2-16.4,16.8c-0.1,0.1-0.3,0.2-0.4,0.3c-7.9,5.4-16.9,7-25.2,5.2c-8.3-1.8-16-6.8-21.4-14.5
	l0,0l-0.3-0.4v0c-5.9-8.6-8.2-19.3-7.9-30.1c0.3-12.3,3.9-24.7,9.5-34.4c0.6-1.1,1.3-2.2,2-3.3c-1.3-0.1-2.6-0.2-3.9-0.3
	c-6.1-0.5-1.2-0.9-7-1c-6.8-0.1-13.9,0.2-20.8,1.2C222.6,116.6,202.9,127.8,200.4,130.8L200.4,130.8z M290.8,100.6
	c-4.3,3-8.2,6.6-11.6,10.5c7-0.1,13.9-0.7,20.7-2.5l0,0c4-1,7.9-2.4,11.6-4.3c3.5-1.8,6.8-4,9.9-6.6l0,0l0.4-0.4
	c1.7-1.5,4.4-3.8,4.5-5.6c0.1-1.2-1.2-1.6-2.8-1.6c-1.6-0.1-3.4,0.1-4.8,0.3c-0.5,0.1-1,0.1-1.3,0.1
	C307.7,91.3,298.7,95,290.8,100.6L290.8,100.6z"/>
</svg>
