<svg width="24" height="25" viewBox="0 0 24 25" fill="none" xmlns="http://www.w3.org/2000/svg">
<path d="M9.6 0.5C8.04 0.5 6.72 1.508 6.216 2.9H0V5.3H6.216C6.708 6.692 8.028 7.7 9.6 7.7C11.58 7.7 13.2 6.08 13.2 4.1C13.2 2.12 11.58 0.5 9.6 0.5ZM15.6 2.9V5.3H24V2.9H15.6ZM15.6 8.9C14.04 8.9 12.72 9.908 12.216 11.3H0V13.7H12.216C12.708 15.092 14.028 16.1 15.6 16.1C17.58 16.1 19.2 14.48 19.2 12.5C19.2 10.52 17.58 8.9 15.6 8.9ZM21.6 11.3V13.7H24V11.3H21.6ZM6 17.3C4.44 17.3 3.12 18.308 2.616 19.7H0V22.1H2.616C3.108 23.492 4.428 24.5 6 24.5C7.98 24.5 9.6 22.88 9.6 20.9C9.6 18.92 7.98 17.3 6 17.3ZM12 19.7V22.1H24V19.7H12Z" fill="#039443"/>
</svg>
