<svg width="20" height="21" viewBox="0 0 20 21" fill="none" xmlns="http://www.w3.org/2000/svg">
<path d="M19.2895 4.38996L9.28951 14.39C9.197 14.4827 9.08711 14.5562 8.96614 14.6064C8.84517 14.6566 8.71548 14.6824 8.58451 14.6824C8.45355 14.6824 8.32386 14.6566 8.20289 14.6064C8.08192 14.5562 7.97203 14.4827 7.87951 14.39L5.04951 11.56C4.95693 11.4674 4.88349 11.3575 4.83339 11.2365C4.78328 11.1155 4.75749 10.9859 4.75749 10.855C4.75749 10.724 4.78328 10.5944 4.83339 10.4734C4.88349 10.3525 4.95693 10.2425 5.04951 10.15C5.1421 10.0574 5.25201 9.98394 5.37297 9.93383C5.49394 9.88373 5.62358 9.85794 5.75451 9.85794C5.88544 9.85794 6.01509 9.88373 6.13606 9.93383C6.25702 9.98394 6.36693 10.0574 6.45951 10.15L8.57951 12.27L17.8695 2.97996C17.962 2.88725 18.0719 2.81371 18.1929 2.76353C18.3139 2.71334 18.4435 2.68751 18.5745 2.68751C18.7055 2.68751 18.8352 2.71334 18.9561 2.76353C19.0771 2.81371 19.187 2.88725 19.2795 2.97996C19.6795 3.36996 19.6795 3.99996 19.2895 4.38996ZM13.7695 1.23996C12.0795 0.549959 10.1595 0.309959 8.15951 0.669959C4.08951 1.39996 0.839514 4.67996 0.149514 8.74996C-0.12426 10.3006 -0.0283151 11.894 0.429552 13.4006C0.88742 14.9072 1.69429 16.2845 2.78459 17.4206C3.87489 18.5567 5.21786 19.4195 6.70435 19.9389C8.19084 20.4584 9.77892 20.6197 11.3395 20.41C15.2995 19.9 18.6195 16.95 19.6595 13.1C20.0595 11.63 20.0995 10.21 19.8695 8.87996C19.7395 8.07996 18.7495 7.76996 18.1695 8.33996C17.9395 8.56996 17.8395 8.90996 17.8995 9.22996C18.1195 10.56 18.0195 11.98 17.3795 13.49C16.2195 16.2 13.6995 18.19 10.7695 18.46C5.66952 18.93 1.43951 14.61 2.06951 9.47996C2.49951 5.93996 5.34951 3.05996 8.87951 2.56996C10.6095 2.32996 12.2495 2.65996 13.6495 3.37996C13.8856 3.50328 14.1609 3.52779 14.415 3.44809C14.6691 3.36839 14.8812 3.191 15.0045 2.95496C15.1278 2.71892 15.1523 2.44355 15.0726 2.18944C14.9929 1.93533 14.8156 1.72328 14.5795 1.59996C14.3095 1.47996 14.0395 1.34996 13.7695 1.23996Z" fill="#039443"/>
</svg>
